<svg width="36" height="36" viewBox="0 0 36 36" fill="none" xmlns="http://www.w3.org/2000/svg">
<path fill-rule="evenodd" clip-rule="evenodd" d="M18.0391 3C9.77563 3 3.07812 9.6975 3.07812 17.961C3.07812 24.57 7.36363 30.1785 13.3096 32.1585C14.0581 32.2935 14.3281 31.833 14.3281 31.437C14.3281 31.0815 14.3161 30.1395 14.3116 28.893C10.1491 29.796 9.27012 26.886 9.27012 26.886C8.59212 25.158 7.60962 24.6975 7.60962 24.6975C6.25212 23.769 7.71313 23.79 7.71313 23.79C9.21613 23.895 10.0036 25.332 10.0036 25.332C11.3386 27.618 13.5076 26.958 14.3566 26.5755C14.4931 25.608 14.8831 24.948 15.3091 24.5745C11.9881 24.198 8.49612 22.914 8.49612 17.1795C8.49612 15.549 9.07963 14.211 10.0321 13.167C9.88063 12.7875 9.36313 11.265 10.1806 9.207C10.1806 9.207 11.4361 8.8035 14.2936 10.7385C15.514 10.4065 16.7729 10.237 18.0376 10.2345C19.3024 10.2366 20.5613 10.406 21.7816 10.7385C24.6406 8.802 25.8946 9.207 25.8946 9.207C26.7121 11.265 26.1991 12.7875 26.0431 13.167C27.0031 14.211 27.5791 15.5475 27.5791 17.1795C27.5791 22.929 24.0841 24.192 20.7511 24.5625C21.2836 25.0245 21.7636 25.9365 21.7636 27.3315C21.7636 29.3325 21.7456 30.9465 21.7456 31.437C21.7456 31.8375 22.0126 32.3025 22.7761 32.1555C28.7191 30.1725 33.0001 24.5685 33.0001 17.961C33.0001 9.6975 26.3026 3 18.0391 3Z" fill="black"/>
</svg>
