<svg width="63" height="63" viewBox="0 0 63 63" fill="none" xmlns="http://www.w3.org/2000/svg">
<path d="M8 8H55V55H8V8Z" fill="#E8D039"/>
<path d="M50.6985 43.3308C50.3616 41.1903 48.992 39.3933 44.936 37.7166C43.5271 37.0566 41.9563 36.5839 41.4882 35.4958C41.3219 34.8626 41.3 34.5059 41.405 34.1224C41.7069 32.8782 43.164 32.4903 44.3191 32.847C45.0629 33.1012 45.7673 33.6854 46.1918 34.6173C48.1782 33.3064 48.1738 33.3152 49.5609 32.4145C49.0533 31.6118 48.782 31.2417 48.4495 30.8983C47.255 29.5382 45.6273 28.8381 43.0239 28.8916C42.5733 28.9496 42.1183 29.012 41.6676 29.07C40.3681 29.4045 39.1298 30.1001 38.4035 31.0321C36.2245 33.5516 36.8458 37.9618 39.4973 39.7768C42.1095 41.7746 45.9467 42.2294 46.4368 44.0979C46.9137 46.3855 44.7873 47.1257 42.6739 46.8626C41.1163 46.5326 40.25 45.7255 39.3136 44.2584C37.5897 45.2751 37.5897 45.2751 35.8176 46.3141C36.2377 47.2506 36.6796 47.6742 37.384 48.4858C40.7181 51.9328 49.062 51.7634 50.5585 46.546C50.6197 46.3676 51.0223 45.1725 50.6985 43.3308ZM33.4592 29.1681H29.1538C29.1538 32.9585 29.1363 36.7221 29.1363 40.5125C29.1363 42.925 29.2589 45.1368 28.8738 45.8146C28.2437 47.1479 26.6117 46.983 25.8679 46.7243C25.1109 46.3453 24.7259 45.8057 24.2796 45.0432C24.1571 44.8247 24.0652 44.6552 24.0345 44.6418C22.8663 45.3687 21.7024 46.1 20.5342 46.8269C21.1162 48.0443 21.9737 49.1011 23.0719 49.7878C24.7127 50.7912 26.9179 51.0989 29.2238 50.5593C30.7246 50.1134 32.0197 49.1903 32.6979 47.7857C33.678 45.944 33.468 43.7143 33.4592 41.2483C33.4811 37.226 33.4592 33.2037 33.4592 29.1681Z" fill="black"/>
</svg>
