<svg width="63" height="63" viewBox="0 0 63 63" fill="none" xmlns="http://www.w3.org/2000/svg">
<path d="M16.5373 8H47.6733C52.3939 8 56.2106 11.8162 56.2106 16.5363V46.4637C56.2106 51.1838 52.3939 55 47.6733 55H16.5373C11.8167 55 8 51.1838 8 46.4637V16.5363C8 11.8162 11.8167 8 16.5373 8Z" fill="#001C33"/>
<path d="M18.8477 40.9602V20.2923C18.8477 20.1517 18.9079 20.0713 19.0485 20.0713C19.39 20.0713 19.7114 20.0713 20.1734 20.0512C20.6556 20.0311 21.1577 20.0311 21.7001 20.0111C22.2425 19.991 22.825 19.991 23.4478 19.9709C24.0705 19.9508 24.6731 19.9508 25.2757 19.9508C26.9229 19.9508 28.2889 20.1517 29.4138 20.5735C30.4182 20.9149 31.3422 21.4773 32.1056 22.2205C32.7484 22.8632 33.2506 23.6465 33.572 24.5102C33.8733 25.3538 34.034 26.2175 34.034 27.1213C34.034 28.8487 33.6322 30.2747 32.8287 31.3995C32.0252 32.5243 30.9003 33.3679 29.5946 33.8499C28.2286 34.3521 26.7221 34.5329 25.0749 34.5329C24.5928 34.5329 24.2714 34.5329 24.0705 34.5128C23.8696 34.4927 23.5884 34.4927 23.2067 34.4927V40.9401C23.2268 41.0807 23.1263 41.2012 22.9857 41.2213H19.0887C18.928 41.2213 18.8477 41.141 18.8477 40.9602ZM23.2268 23.9478V30.6965C23.508 30.7166 23.7692 30.7367 24.0102 30.7367H25.0749C25.8583 30.7367 26.6417 30.6162 27.385 30.3752C28.0278 30.1944 28.5902 29.8128 29.0321 29.3106C29.454 28.8085 29.6549 28.1256 29.6549 27.2418C29.675 26.6192 29.5143 25.9965 29.1928 25.4542C28.8514 24.932 28.3693 24.5303 27.7867 24.3094C27.0435 24.0081 26.2399 23.8876 25.4164 23.9076C24.8941 23.9076 24.4321 23.9076 24.0504 23.9277C23.6486 23.9076 23.3674 23.9277 23.2268 23.9478ZM46.5688 29.4713C45.9661 29.15 45.3233 28.929 44.6403 28.7884C43.8971 28.6277 43.1538 28.5273 42.3905 28.5273C41.9887 28.5072 41.5669 28.5675 41.1852 28.6679C40.9241 28.7282 40.7031 28.8688 40.5625 29.0696C40.4621 29.2303 40.4018 29.4311 40.4018 29.6119C40.4018 29.7927 40.4822 29.9735 40.6027 30.1341C40.7835 30.3551 41.0245 30.5358 41.2857 30.6764C41.7477 30.9175 42.2298 31.1384 42.7119 31.3393C43.7966 31.7008 44.8412 32.2029 45.8054 32.8055C46.4683 33.2273 47.0107 33.7897 47.3924 34.4726C47.7138 35.1153 47.8745 35.8183 47.8544 36.5414C47.8745 37.4854 47.5932 38.4294 47.071 39.2128C46.5085 40.0162 45.7251 40.6388 44.8211 41.0004C43.8368 41.4222 42.6316 41.6431 41.1852 41.6431C40.2612 41.6431 39.3573 41.5628 38.4533 41.382C37.7502 41.2615 37.0472 41.0405 36.4044 40.7393C36.2637 40.6589 36.1633 40.5183 36.1834 40.3576V36.8628C36.1834 36.8025 36.2035 36.7222 36.2637 36.682C36.324 36.6418 36.3843 36.6619 36.4445 36.7021C37.228 37.1641 38.0515 37.4854 38.9354 37.6863C39.6987 37.8871 40.5023 37.9876 41.3058 37.9876C42.0691 37.9876 42.6115 37.8871 42.9731 37.7064C43.2945 37.5658 43.5154 37.2243 43.5154 36.8628C43.5154 36.5816 43.3547 36.3205 43.0333 36.0594C42.7119 35.7982 42.049 35.497 41.0647 35.1153C40.0402 34.7538 39.0961 34.2717 38.2123 33.6692C37.5895 33.2273 37.0673 32.6448 36.6856 31.9619C36.3642 31.3192 36.2035 30.6162 36.2236 29.9132C36.2236 29.0495 36.4646 28.226 36.9065 27.4829C37.4087 26.6794 38.152 26.0367 39.0158 25.635C39.9599 25.1529 41.1451 24.932 42.5713 24.932C43.3949 24.932 44.2386 24.9923 45.0622 25.1128C45.6648 25.1931 46.2474 25.3538 46.7897 25.5747C46.8701 25.5948 46.9504 25.6752 46.9906 25.7555C47.0107 25.8358 47.0308 25.9162 47.0308 25.9965V29.2705C47.0308 29.3508 46.9906 29.4311 46.9303 29.4713C46.7495 29.5115 46.6491 29.5115 46.5688 29.4713Z" fill="#2E9FF2"/>
</svg>
