<svg width="63" height="63" viewBox="0 0 63 63" fill="none" xmlns="http://www.w3.org/2000/svg">
<path d="M50.0439 21.3645C51.7429 24.4722 52.6312 27.9581 52.6265 31.5C52.6274 35.1971 51.6577 38.8297 49.8142 42.0344C47.9708 45.2392 45.3183 47.9038 42.122 49.7618L48.5751 31.1052C49.7807 28.0925 50.1825 25.6791 50.1825 23.5406C50.1834 22.8129 50.137 22.0861 50.0439 21.3645ZM34.414 21.5689C35.2199 21.5293 36.0242 21.4603 36.8251 21.3621C37.9648 21.214 37.8309 19.5409 36.6935 19.602C36.6935 19.602 33.2554 19.8651 31.0535 19.8651C28.9691 19.8651 25.4723 19.5714 25.4723 19.5714C24.3278 19.515 24.1797 21.2469 25.3289 21.3057C25.3289 21.3057 26.3841 21.4279 27.5332 21.4819L30.8209 30.5012L26.1796 44.3639L18.4857 21.5125C19.2928 21.4719 20.0984 21.4069 20.9015 21.3174C22.0459 21.1694 21.912 19.4962 20.7722 19.562C20.7722 19.562 17.353 19.8322 15.144 19.8322C14.7516 19.8322 14.2863 19.8158 13.7928 19.8017C17.6186 14.1688 24.1257 10.3782 31.5 10.3782C37.0014 10.3782 42.0068 12.4791 45.7668 15.9242C45.6775 15.9195 45.5882 15.9054 45.4919 15.9054C43.4168 15.9054 41.9434 17.7149 41.9434 19.656C41.9434 21.3973 42.9468 22.8732 44.0184 24.6098C44.8245 26.0222 45.7621 27.8293 45.7621 30.4401C45.7621 32.2332 45.0689 34.3459 44.1524 37.2528L42.0468 44.2722L34.4093 21.536L34.414 21.5689ZM31.5 52.6171C29.4797 52.6191 27.4695 52.331 25.531 51.7617L31.8689 33.3424L38.362 51.1366C38.4113 51.24 38.4607 51.3363 38.5147 51.428C36.2605 52.2185 33.8888 52.6222 31.5 52.6218M10.3735 31.5C10.3701 28.5377 10.9931 25.6082 12.2018 22.9037L22.2762 50.5138C18.7077 48.7811 15.6989 46.079 13.5939 42.7165C11.489 39.354 10.373 35.467 10.3735 31.5ZM31.5 8C18.5444 8 8 18.5444 8 31.5C8 44.4555 18.5444 55 31.5 55C44.4555 55 55 44.4555 55 31.5C55 18.5444 44.4555 8 31.5 8Z" fill="#3299D3"/>
</svg>
