<svg width="55" height="55" viewBox="0 0 55 55" fill="none" xmlns="http://www.w3.org/2000/svg">
<path d="M16.9008 38.4565L19.7654 34.8769L10.5437 27.5L19.7654 20.1231L16.9008 16.5435L5.44248 25.7102C5.174 25.9249 4.95726 26.1972 4.80832 26.5071C4.65937 26.8169 4.58203 27.1562 4.58203 27.5C4.58203 27.8438 4.65937 28.1831 4.80832 28.4929C4.95726 28.8028 5.174 29.0751 5.44248 29.2898L16.9008 38.4565ZM38.0987 16.5435L35.2341 20.1231L44.4558 27.5L35.2341 34.8769L38.0987 38.4565L49.5571 29.2898C49.8255 29.0751 50.0423 28.8028 50.1912 28.4929C50.3402 28.1831 50.4175 27.8438 50.4175 27.5C50.4175 27.1562 50.3402 26.8169 50.1912 26.5071C50.0423 26.1972 49.8255 25.9249 49.5571 25.7102L38.0987 16.5435ZM34.3198 7.37L25.1531 48.62L20.6775 47.6254L29.8441 6.37541L34.3198 7.37Z" fill="#FFAF29"/>
</svg>
