<svg width="55" height="55" viewBox="0 0 55 55" fill="none" xmlns="http://www.w3.org/2000/svg">
<path d="M26.5533 16.0394H17.6502C16.7094 16.0391 15.7912 16.3284 15.0205 16.8679C14.2497 17.4074 13.6636 18.1711 13.3419 19.0552L4.72521 42.7556C4.42041 43.5921 4.62896 44.5294 5.25687 45.1596L5.92833 45.831L20.6454 31.114C20.6431 31.0544 20.6271 30.9948 20.6271 30.9352C20.6271 30.2553 20.8287 29.5907 21.2064 29.0254C21.5841 28.4601 22.121 28.0195 22.7491 27.7594C23.3772 27.4992 24.0684 27.4311 24.7352 27.5638C25.402 27.6964 26.0145 28.0238 26.4953 28.5045C26.976 28.9853 27.3034 29.5978 27.436 30.2646C27.5687 30.9314 27.5006 31.6226 27.2404 32.2507C26.9802 32.8788 26.5396 33.4157 25.9744 33.7934C25.4091 34.1711 24.7445 34.3727 24.0646 34.3727C24.005 34.3727 23.9454 34.3567 23.8858 34.3544L9.16875 49.0715L9.84021 49.7429C10.1483 50.0518 10.5384 50.266 10.9644 50.3602C11.3904 50.4545 11.8345 50.4247 12.2442 50.2746L35.9446 41.6556C36.8287 41.3339 37.5924 40.7478 38.1319 39.977C38.6714 39.2063 38.9607 38.2881 38.9604 37.3473V28.4442L43.5415 23.8654L31.1344 11.4583L26.5533 16.0394ZM45.6956 20.7648L34.2373 9.30646L39.0956 4.44583L50.554 15.9042L45.6956 20.7648Z" fill="#FFAF29"/>
</svg>
