<svg width="63" height="63" viewBox="0 0 63 63" fill="none" xmlns="http://www.w3.org/2000/svg">
<circle cx="31.5" cy="31.5" r="21.2211" stroke="#840CBD" stroke-width="4.55782"/>
<path d="M24.3477 22.3043L24.3477 20.0254C23.089 20.0254 22.0687 21.0457 22.0687 22.3043H24.3477ZM24.3477 41.7174H22.0687C22.0687 42.976 23.089 43.9963 24.3477 43.9963V41.7174ZM22.0687 22.3043V41.7174H26.6266V22.3043H22.0687ZM24.3477 43.9963C25.0635 43.9963 25.855 44.0262 26.7495 44.0586C27.6272 44.0905 28.5876 44.124 29.5681 44.124C31.5109 44.124 33.685 43.9955 35.7233 43.3915C37.7979 42.7768 39.8156 41.6431 41.2848 39.5991C42.7427 37.5707 43.4853 34.8892 43.4853 31.5H38.9274C38.9274 34.2412 38.329 35.9021 37.5838 36.939C36.8498 37.9601 35.8023 38.6145 34.4285 39.0215C33.0184 39.4393 31.3611 39.5662 29.5681 39.5662C28.6808 39.5662 27.7972 39.5358 26.9148 39.5038C26.0492 39.4724 25.1644 39.4385 24.3477 39.4385V43.9963ZM43.4853 31.5C43.4853 28.4042 42.6652 25.9342 41.1106 24.0752C39.5768 22.2411 37.5239 21.2368 35.484 20.6804C31.581 19.616 26.8276 20.0254 24.3477 20.0254L24.3477 24.5832C27.4873 24.5832 31.1632 24.2263 34.2847 25.0777C35.7571 25.4792 36.8651 26.1033 37.6142 26.9991C38.3426 27.8701 38.9274 29.2316 38.9274 31.5H43.4853Z" fill="#840CBD"/>
</svg>
