<svg width="63" height="63" viewBox="0 0 63 63" fill="none" xmlns="http://www.w3.org/2000/svg">
<path d="M16.5 9H47.5C52.2 9 56 12.8081 56 17.5181V47.3814C56 52.0914 52.2 55.8995 47.5 55.8995H16.5C11.8 55.8995 8 52.0914 8 47.3814V17.5181C8 12.8081 11.8 9 16.5 9Z" fill="#300000"/>
<path d="M31.2003 37.0596H23.7603L22.2403 41.7695C22.2003 41.9499 22.0403 42.0702 21.8603 42.0501H18.1003C17.8803 42.0501 17.8203 41.9299 17.8803 41.6894L24.3203 23.11C24.3803 22.9095 24.4403 22.6891 24.5203 22.4486C24.6003 22.0277 24.6403 21.5867 24.6403 21.1458C24.6203 21.0456 24.7003 20.9454 24.8003 20.9253H29.9803C30.1403 20.9253 30.2203 20.9855 30.2403 21.0857L37.5403 41.7295C37.6003 41.9499 37.5403 42.0501 37.3403 42.0501H33.1603C33.0203 42.0702 32.8803 41.97 32.8403 41.8297L31.2003 37.0596ZM24.9203 32.9909H30.0003C29.8803 32.57 29.7203 32.069 29.5403 31.5479C29.3603 31.0067 29.1803 30.4255 29.0003 29.8242C28.8003 29.2029 28.6203 28.6016 28.4203 27.9803C28.2203 27.359 28.0403 26.7777 27.8803 26.1965C27.7203 25.6353 27.5803 25.1142 27.4403 24.6332H27.4003C27.2203 25.495 27.0003 26.3569 26.7203 27.2187C26.4203 28.1807 26.1203 29.1828 25.8003 30.185C25.5203 31.2071 25.2203 32.1491 24.9203 32.9909ZM42.0003 24.4328C41.3403 24.4528 40.7003 24.1923 40.2203 23.7313C39.7603 23.2302 39.5203 22.5688 39.5403 21.8874C39.5203 21.2059 39.7803 20.5646 40.2603 20.1036C40.7403 19.6426 41.3803 19.4021 42.0403 19.4021C42.8203 19.4021 43.4203 19.6426 43.8603 20.1036C44.3003 20.5846 44.5403 21.226 44.5203 21.8874C44.5403 22.5688 44.3003 23.2302 43.8203 23.7313C43.3603 24.2123 42.6803 24.4729 42.0003 24.4328ZM39.7603 41.8297V26.3969C39.7603 26.1965 39.8403 26.1163 40.0203 26.1163H43.9803C44.1603 26.1163 44.2403 26.2166 44.2403 26.3969V41.8297C44.2403 42.0501 44.1603 42.1503 43.9803 42.1503H40.0603C39.8603 42.1503 39.7603 42.0301 39.7603 41.8297Z" fill="#F29200"/>
</svg>
