<svg width="63" height="63" viewBox="0 0 63 63" fill="none" xmlns="http://www.w3.org/2000/svg">
<path d="M55.8074 30.9518C55.4651 30.6185 51.072 25.2299 50.3303 24.3411C49.5316 23.4522 49.1893 23.6189 48.6758 23.6744C48.1623 23.73 42.6281 24.6744 42.0005 24.7299C41.373 24.841 40.9736 25.0632 41.373 25.6188C41.7153 26.1187 45.3667 31.1185 46.1654 32.2851L31.6169 35.6738L20.0921 16.8415C19.6357 16.1748 19.5216 15.9526 18.4946 16.0082C17.4676 16.0637 9.42313 16.7304 8.85259 16.7304C8.28206 16.7859 7.65447 17.0081 8.22501 18.3414C8.79554 19.6746 17.9241 38.7847 18.1523 39.3402C18.3805 39.8958 19.0651 40.7846 20.6056 40.4513C22.2031 40.0624 27.6802 38.6736 30.704 37.8959C32.3015 40.6735 35.4965 46.3398 36.1241 47.1731C36.9228 48.2842 37.4933 48.062 38.6915 47.7287C39.6614 47.4509 53.6394 42.5623 54.267 42.2845C54.8946 42.0068 55.294 41.8401 54.8375 41.229C54.4952 40.7846 50.8438 35.9515 48.904 33.4517C50.2162 33.1183 54.9516 31.8962 55.4651 31.7295C56.0357 31.5629 56.1498 31.2851 55.8074 30.9518ZM29.3918 36.2293C29.2206 36.2848 21.062 38.1736 20.6626 38.2847C20.2062 38.3958 20.2062 38.3403 20.2062 38.1736C20.0921 38.007 10.5071 18.6747 10.336 18.4525C10.2219 18.2303 10.2219 18.0081 10.336 18.0081C10.4501 18.0081 18.0382 17.3414 18.2664 17.3414C18.5517 17.3414 18.4946 17.397 18.6087 17.5636C18.6087 17.5636 29.2777 35.5071 29.4488 35.7849C29.677 36.0626 29.5629 36.1737 29.3918 36.2293ZM52.3272 40.3957C52.4413 40.6179 52.6125 40.729 52.156 40.8401C51.7567 41.0068 38.4062 45.3955 38.1209 45.5066C37.8357 45.6177 37.6645 45.6732 37.3222 45.1732C36.9799 44.6733 32.6438 37.3959 32.6438 37.3959L46.8501 33.785C47.1924 33.6739 47.3065 33.6183 47.5347 33.9516C47.7629 34.3405 52.2131 40.2291 52.3272 40.3957ZM53.24 30.6185C52.8977 30.674 47.7059 31.9517 47.7059 31.9517L43.4269 26.2854C43.3128 26.1187 43.1987 25.9521 43.4839 25.8965C43.7692 25.841 48.6187 25.0077 48.8469 24.9521C49.0752 24.8966 49.2463 24.841 49.5316 25.2299C49.8168 25.5632 53.4683 30.1185 53.6394 30.2852C53.8106 30.4518 53.5824 30.5629 53.24 30.6185Z" fill="#D00000"/>
</svg>
