<svg width="63" height="63" viewBox="0 0 63 63" fill="none" xmlns="http://www.w3.org/2000/svg">
<path d="M31.9964 55C31.3446 55 30.7354 54.8258 30.1665 54.5246L24.3853 51.1164C23.5201 50.6386 23.9539 50.4644 24.2146 50.3773C25.3903 49.9889 25.6084 49.9042 26.8244 49.2169C26.9571 49.1298 27.1301 49.1699 27.2629 49.2569L31.6954 51.8931C31.8708 51.9778 32.0889 51.9778 32.2193 51.8931L49.5678 41.9204C49.7432 41.8357 49.8285 41.6615 49.8285 41.445V21.5373C49.8285 21.3231 49.7432 21.1489 49.5678 21.0642L32.2193 11.1339C32.0462 11.0468 31.8282 11.0468 31.6954 11.1339L14.3422 21.0618C14.1691 21.1466 14.0814 21.3655 14.0814 21.5349V41.4403C14.0814 41.6121 14.1691 41.831 14.3422 41.9157L19.0828 44.639C21.6476 45.9288 23.2594 44.4154 23.2594 42.909V23.2649C23.2594 23.006 23.4751 22.7447 23.7809 22.7447H25.9995C26.2555 22.7447 26.521 22.9613 26.521 23.2649V42.9113C26.521 46.3219 24.6531 48.3108 21.3916 48.3108C20.3913 48.3108 19.6091 48.3108 17.3904 47.228L12.8275 44.6413C12.2716 44.3204 11.8102 43.8602 11.4895 43.3067C11.1688 42.7533 11 42.1259 11 41.4873V21.5797C11 20.2851 11.6945 19.0753 12.8275 18.428L30.1689 8.45537C30.7319 8.15641 31.3604 8 31.9988 8C32.6372 8 33.2658 8.15641 33.8287 8.45537L51.1725 18.428C52.3079 19.073 53 20.2851 53 21.5797V41.4873C53 42.7795 52.3055 43.9893 51.1725 44.6413L33.8287 54.6116C33.2575 54.8705 32.6056 55 31.9964 55ZM37.3439 41.3108C29.7351 41.3108 28.1707 37.8556 28.1707 34.9228C28.1707 34.6639 28.3888 34.4027 28.6922 34.4027H30.9535C31.2142 34.4027 31.4299 34.5745 31.4299 34.8358C31.7784 37.1212 32.7763 38.2463 37.389 38.2463C41.0393 38.2463 42.6084 37.4225 42.6084 35.4807C42.6084 34.358 42.1699 33.5389 36.4764 32.9787C31.7381 32.5079 28.7823 31.4652 28.7823 27.7111C28.7823 24.2158 31.7381 22.1422 36.6968 22.1422C42.26 22.1422 45.0001 24.0463 45.3462 28.1865C45.342 28.3262 45.2958 28.4615 45.2134 28.5749C45.1257 28.6596 44.9977 28.7467 44.8674 28.7467H42.6084C42.4968 28.7444 42.3891 28.7051 42.3024 28.6352C42.2157 28.5653 42.1549 28.4687 42.1296 28.3607C41.6058 25.9787 40.2594 25.2067 36.6968 25.2067C32.6933 25.2067 32.2145 26.5884 32.2145 27.624C32.2145 28.8738 32.7763 29.2622 38.1735 29.9542C43.521 30.6438 46.0431 31.6371 46.0431 35.3536C45.9957 39.1548 42.8692 41.3108 37.3439 41.3108Z" fill="#79B300"/>
</svg>
