<svg width="63" height="63" viewBox="0 0 63 63" fill="none" xmlns="http://www.w3.org/2000/svg">
<path d="M6.42162 44.8585H10.5213C10.6098 44.8594 10.6957 44.8281 10.763 44.7705C10.8302 44.7129 10.8742 44.6328 10.8869 44.5451L11.8008 39.7926H14.9865C16.3201 39.826 17.6506 39.6498 18.9295 39.2704C19.9657 38.9277 20.9116 38.3565 21.6975 37.5992C22.4032 36.9647 22.9949 36.214 23.447 35.3796C23.8941 34.5633 24.2113 33.6823 24.387 32.7684C24.6645 31.8102 24.7121 30.8002 24.5261 29.8202C24.3401 28.8402 23.9257 27.9179 23.3164 27.1281C22.6106 26.4108 21.7562 25.8568 20.8134 25.5049C19.8705 25.153 18.8621 25.0119 17.8589 25.0913H10.0252C9.93118 25.0955 9.84139 25.1313 9.77031 25.1929C9.69922 25.2545 9.65101 25.3383 9.63347 25.4308L6.02994 44.3884C5.99002 44.4981 5.99002 44.6183 6.02994 44.7279C6.07976 44.7798 6.14145 44.8188 6.20968 44.8415C6.27791 44.8642 6.35064 44.8701 6.42162 44.8585ZM13.8637 28.7732H16.4749C16.9717 28.7064 17.4769 28.739 17.961 28.869C18.4451 28.999 18.8986 29.2238 19.2951 29.5304C19.739 30.0004 19.8174 30.8883 19.5823 32.1417C19.4514 33.263 18.9234 34.3005 18.0939 35.0663C17.0597 35.7211 15.8413 36.0234 14.621 35.928H12.532L13.8637 28.7732ZM39.454 26.2925C38.0403 25.2532 36.2899 24.7783 34.5448 24.9607H31.4374L32.2991 20.3649C32.3246 20.312 32.3378 20.254 32.3378 20.1952C32.3378 20.1364 32.3246 20.0784 32.2991 20.0255C32.2064 19.9915 32.1046 19.9915 32.0119 20.0255H27.9122C27.8237 20.0246 27.7378 20.0558 27.6706 20.1135C27.6033 20.1711 27.5593 20.2512 27.5467 20.3388L23.9431 39.3226C23.918 39.371 23.9048 39.4247 23.9048 39.4793C23.9048 39.5338 23.918 39.5876 23.9431 39.636C23.9739 39.6842 24.0164 39.7238 24.0666 39.7512C24.1168 39.7786 24.1732 39.7928 24.2304 39.7926H28.2517C28.3443 39.7929 28.4335 39.758 28.5014 39.695C28.5692 39.632 28.6107 39.5455 28.6173 39.4532L30.6279 28.8254H33.5264C34.7015 28.8254 35.1193 29.0865 35.2499 29.2432C35.3562 29.4998 35.4109 29.7749 35.4109 30.0527C35.4109 30.3305 35.3562 30.6055 35.2499 30.8622L33.657 39.3226C33.6318 39.371 33.6187 39.4247 33.6187 39.4793C33.6187 39.5338 33.6318 39.5876 33.657 39.636C33.6894 39.6826 33.7322 39.721 33.7821 39.7482C33.832 39.7754 33.8875 39.7906 33.9442 39.7926H38.0178C38.1118 39.7884 38.2015 39.7526 38.2726 39.691C38.3437 39.6294 38.3919 39.5456 38.4095 39.4532L40.0807 30.5749C40.3503 29.8669 40.4343 29.1017 40.3246 28.3521C40.2149 27.6025 39.9152 26.8935 39.454 26.2925ZM51.2568 24.9607H43.0836C43.0356 24.9572 42.9873 24.9631 42.9416 24.9783C42.8959 24.9935 42.8536 25.0175 42.8172 25.049C42.7808 25.0806 42.751 25.119 42.7295 25.1621C42.708 25.2052 42.6952 25.2521 42.6919 25.3002L38.8795 44.3884C38.8557 44.4419 38.8435 44.4997 38.8435 44.5582C38.8435 44.6167 38.8557 44.6745 38.8795 44.7279C38.9146 44.7697 38.9586 44.8032 39.0083 44.8258C39.058 44.8484 39.1121 44.8595 39.1667 44.8585H43.4231C43.516 44.866 43.6083 44.8378 43.6811 44.7796C43.754 44.7213 43.8018 44.6375 43.8148 44.5451L44.7809 39.7926H48.0972C49.4735 39.8229 50.8466 39.6469 52.1708 39.2704C53.3109 38.9532 54.3644 38.3819 55.2521 37.5992C55.981 36.9666 56.5988 36.2163 57.0799 35.3796C57.5354 34.5645 57.8613 33.6836 58.0461 32.7684C58.3307 31.8094 58.3797 30.7958 58.1887 29.8139C57.9978 28.8319 57.5726 27.9105 56.9494 27.1281C56.2111 26.3802 55.3207 25.7997 54.3386 25.4258C53.3565 25.0519 52.3056 24.8933 51.2568 24.9607ZM52.8758 32.1939C52.7196 33.3246 52.1638 34.362 51.3091 35.1185C50.2375 35.7763 48.9852 36.0779 47.7316 35.9802H45.6426L47.0527 28.7732H49.664C50.7078 28.6452 51.7615 28.9156 52.6147 29.5304C53.0325 30.0004 53.0325 30.8883 52.8758 32.1939Z" fill="#7175AA"/>
</svg>
