<svg width="63" height="63" viewBox="0 0 63 63" fill="none" xmlns="http://www.w3.org/2000/svg">
<path d="M32.1386 36.9171C34.7129 36.9171 36.7997 34.8303 36.7997 32.2561C36.7997 29.6818 34.7129 27.595 32.1386 27.595C29.5644 27.595 27.4775 29.6818 27.4775 32.2561C27.4775 34.8303 29.5644 36.9171 32.1386 36.9171Z" fill="#0BCBE6"/>
<path d="M19.0876 41.5235L18.0562 41.2597C10.3947 39.3248 6 36.0346 6 32.2457C6 28.4541 10.3973 25.1666 18.0562 23.2316L19.0876 22.9705L19.3774 23.9915C20.1518 26.6646 21.1439 29.2698 22.3438 31.7809L22.5658 32.2457L22.3438 32.7105C21.1427 35.2251 20.1478 37.8311 19.3774 40.5051L19.0876 41.5235ZM17.5809 25.6079C11.7604 27.2477 8.18562 29.7493 8.18562 32.2457C8.18562 34.7368 11.7578 37.241 17.5809 38.8783C18.2938 36.6117 19.1555 34.3947 20.153 32.2457C19.1483 30.093 18.289 27.8755 17.5809 25.6079ZM45.1871 41.5235L44.8998 40.4998C44.1234 37.8262 43.1305 35.2202 41.9308 32.7079L41.7089 32.2457L41.9308 31.7783C43.132 29.2688 44.1217 26.6602 44.8998 23.9863L45.1871 22.9679L46.2185 23.229C53.8825 25.164 58.2747 28.4515 58.2747 32.2457C58.2747 36.0372 53.8799 39.3248 46.2185 41.2597L45.1871 41.5235ZM44.1165 32.2457C45.161 34.507 46.0305 36.7318 46.6938 38.8783C52.5169 37.241 56.0917 34.7368 56.0917 32.2457C56.0917 29.7493 52.5195 27.2504 46.6938 25.6079C45.9816 27.8748 45.1206 30.0922 44.1165 32.2457Z" fill="#0BCBE6"/>
<path d="M17.5659 25.5975L17.2786 24.5791C15.1217 16.9856 15.7745 11.5463 19.0726 9.65055C22.2975 7.7835 27.486 9.99001 32.92 15.565L33.6616 16.3275L32.92 17.0874C30.99 19.0946 29.226 21.2551 27.6453 23.5476L27.3502 23.9707L26.8384 24.0124C24.059 24.2307 21.3019 24.6752 18.5947 25.3416L17.5659 25.5975ZM21.6969 11.1598C21.1119 11.1598 20.5949 11.2878 20.1588 11.5385C17.9967 12.784 17.6155 17.1213 19.1039 22.9758C21.4305 22.4614 23.778 22.0932 26.1438 21.8869C27.5135 19.9442 29.0076 18.0925 30.6169 16.3432C27.2144 13.0347 24.0026 11.1598 21.6969 11.1598ZM42.5791 55.5094C39.4769 55.5094 35.4921 53.1697 31.3559 48.9238L30.6169 48.1639L31.3559 47.4067C33.2862 45.3962 35.0511 43.2331 36.6332 40.9386L36.9257 40.5208L37.4323 40.4712C40.2127 40.2567 42.9708 39.8139 45.6786 39.1473L46.7101 38.8861L46.9999 39.9071C49.1464 47.4954 48.4962 52.9425 45.2034 54.8383C44.4039 55.2915 43.498 55.5231 42.5791 55.5094ZM33.6616 48.1456C37.0615 51.4541 40.2759 53.3316 42.5791 53.3316C43.1666 53.3316 43.6836 53.201 44.1171 52.9529C46.2818 51.7048 46.6657 47.3596 45.172 41.5052C42.848 42.0222 40.4979 42.393 38.1269 42.5993C36.763 44.545 35.2713 46.3979 33.6616 48.1456Z" fill="#0BCBE6"/>
<path d="M46.7097 25.5974L45.6782 25.3389C42.9705 24.6705 40.2125 24.226 37.4319 24.0098L36.9253 23.9654L36.6328 23.5424C35.0529 21.2486 33.2879 19.088 31.3555 17.0821L30.6165 16.3222L31.3555 15.565C36.7869 9.99256 41.9729 7.78605 45.203 9.65048C48.4984 11.5489 49.1538 16.9881 46.9995 24.579L46.7097 25.5974ZM38.1265 21.8868C40.6176 22.1088 42.9782 22.4822 45.1716 22.9757C46.6627 17.1213 46.2814 12.784 44.1167 11.5358C41.965 10.2902 37.915 12.1965 33.6612 16.3431C35.2698 18.0927 36.7634 19.9414 38.1265 21.8868ZM21.6965 55.5093C20.7777 55.5224 19.8719 55.2908 19.0722 54.8382C15.7742 52.9424 15.1214 47.498 17.2756 39.9071L17.5577 38.8861L18.5891 39.1472C21.1063 39.7817 23.8795 40.2283 26.8354 40.4711L27.342 40.5207L27.6371 40.9385C29.2143 43.2312 30.9795 45.3959 32.9118 47.4066L33.6534 48.1639L32.9118 48.9237C28.7782 53.1722 24.7934 55.5093 21.6965 55.5093ZM19.1035 41.5078C17.6151 47.3622 17.9963 51.7073 20.1585 52.9555C22.3127 54.1828 26.3497 52.2896 30.6165 48.1456C29.0079 46.3958 27.5137 44.544 26.1434 42.6019C23.7753 42.3925 21.4235 42.027 19.1035 41.5078Z" fill="#0BCBE6"/>
<path d="M32.139 42.8787C30.345 42.8787 28.5041 42.803 26.6553 42.6489L26.1435 42.6045L25.8485 42.1815C24.8059 40.6824 23.825 39.1413 22.9082 37.5622C21.9981 35.9788 21.1523 34.3594 20.3727 32.7079L20.1533 32.2457L20.3727 31.7783C21.1534 30.128 21.9969 28.509 22.9082 26.9266C23.8143 25.3703 24.804 23.814 25.8485 22.3047L26.1435 21.8869L26.6553 21.8399C30.303 21.5343 33.9698 21.5343 37.6174 21.8399L38.124 21.8895L38.419 22.3073C40.5075 25.307 42.3418 28.4758 43.9027 31.7809L44.1194 32.2483L43.9027 32.7105C42.3461 36.0178 40.5116 39.1871 38.419 42.1841L38.124 42.6071L37.6174 42.6515C35.7738 42.8004 33.9303 42.8787 32.139 42.8787ZM27.3499 40.5181C30.5748 40.761 33.7031 40.761 36.9254 40.5181C38.7243 37.8839 40.3233 35.1187 41.7092 32.2457C40.3282 29.3701 38.7289 26.6045 36.9254 23.9732C33.7383 23.7278 30.537 23.7278 27.3499 23.9732C25.5449 26.6036 23.9455 29.3692 22.5661 32.2457C23.955 35.1171 25.5539 37.8821 27.3499 40.5181Z" fill="#0BCBE6"/>
</svg>
