<svg width="55" height="55" viewBox="0 0 55 55" fill="none" xmlns="http://www.w3.org/2000/svg">
<path d="M45.5832 17.8475C47.2401 20.8781 48.1063 24.2775 48.1018 27.7315C48.1026 31.3368 47.157 34.8792 45.3593 38.0044C43.5616 41.1296 40.975 43.7281 37.858 45.54L44.1509 27.3465C45.3265 24.4085 45.7184 22.055 45.7184 19.9696C45.7192 19.26 45.6741 18.5512 45.5832 17.8475ZM30.3413 18.0469C31.1273 18.0082 31.9115 17.941 32.6926 17.8452C33.804 17.7008 33.6734 16.0692 32.5643 16.1287C32.5643 16.1287 29.2115 16.3854 27.0643 16.3854C25.0315 16.3854 21.6215 16.099 21.6215 16.099C20.5055 16.044 20.3611 17.7329 21.4818 17.7902C21.4818 17.7902 22.5107 17.9094 23.6313 17.9621L26.8374 26.7575L22.3113 40.276L14.8084 17.9919C15.5954 17.9523 16.3811 17.8889 17.1643 17.8017C18.2803 17.6573 18.1497 16.0256 17.0382 16.0898C17.0382 16.0898 13.7038 16.3533 11.5497 16.3533C11.167 16.3533 10.7132 16.3373 10.232 16.3235C13.9628 10.8304 20.3084 7.13396 27.4997 7.13396C32.8645 7.13396 37.7457 9.18271 41.4124 12.5423C41.3253 12.5377 41.2382 12.524 41.1443 12.524C39.1207 12.524 37.6838 14.2885 37.6838 16.1815C37.6838 17.8796 38.6624 19.3187 39.7074 21.0123C40.4934 22.3896 41.4078 24.1519 41.4078 26.6979C41.4078 28.4465 40.7318 30.5067 39.838 33.3415L37.7847 40.1867L30.3368 18.0148L30.3413 18.0469ZM27.4997 48.3244C25.5295 48.3263 23.5692 48.0454 21.6788 47.4902L27.8595 29.5281L34.1913 46.8806C34.2395 46.9815 34.2876 47.0754 34.3403 47.1648C32.142 47.9357 29.8292 48.3293 27.4997 48.329M6.89759 27.7315C6.89425 24.8427 7.50185 21.9859 8.68051 19.3485L18.5049 46.2733C15.0249 44.5836 12.0908 41.9486 10.0381 38.6695C7.9854 35.3905 6.89707 31.6 6.89759 27.7315ZM27.4997 4.81479C14.8657 4.81479 4.58301 15.0975 4.58301 27.7315C4.58301 40.3654 14.8657 50.6481 27.4997 50.6481C40.1336 50.6481 50.4163 40.3654 50.4163 27.7315C50.4163 15.0975 40.1336 4.81479 27.4997 4.81479Z" fill="#FFAF29"/>
</svg>
